<svg width="70" height="70" viewBox="0 0 70 70" fill="none" xmlns="http://www.w3.org/2000/svg">
<g clip-path="url(#clip0_624_2875)">
<path d="M70 0H0V70H70V0Z" fill="black"/>
<path fill-rule="evenodd" clip-rule="evenodd" d="M52.9634 38.9478L53.0434 38.4646C53.5173 38.7359 53.9052 38.9789 54.2103 39.1824C53.8638 39.1287 53.4343 39.0467 52.9634 38.9478ZM34.7672 34.4038C34.7672 35.181 34.1038 35.8168 33.2864 35.8168C32.4719 35.8168 31.8056 35.181 31.8056 34.4038C31.8056 33.6239 32.4719 32.9909 33.2864 32.9909C34.1038 32.9909 34.7672 33.6239 34.7672 34.4038ZM47.6532 52.9867C47.4015 53.1252 46.8536 53.3202 46.3945 53.4869L45.6216 53.7695C44.8308 54.0662 43.892 54.3347 42.8199 54.5664C40.1366 55.157 36.4228 55.5074 32.8925 55.5074C21.813 55.5074 19.0054 53.6762 18.9047 53.08L15.1968 25.768C19.3282 27.7942 26.4687 28.7521 33.2864 28.7521C39.4081 28.7521 47.5289 27.8846 52.1608 25.7228L50.0966 38.2103C45.7696 36.9415 40.6105 34.6554 37.5452 33.2565C37.0151 31.4763 35.3181 30.1651 33.2864 30.1651C30.8371 30.1651 28.8439 32.064 28.8439 34.4038C28.8439 36.7408 30.8371 38.6426 33.2864 38.6426C35.0367 38.6426 36.5383 37.6621 37.2639 36.2576C40.5601 37.744 45.4616 39.8521 49.6286 41.0305L47.6532 52.9867ZM33.2864 17.4091C45.9207 17.4091 52.7561 20.3932 52.8361 21.6423L52.8242 21.7101C52.6821 22.9704 45.8644 25.9263 33.2864 25.9263C21.3036 25.9263 14.7407 23.1569 14.6459 21.7016L14.64 21.6451C14.6933 20.1954 21.2651 17.4091 33.2864 17.4091ZM53.541 35.4692L55.7948 21.8881C55.8007 21.8146 55.8125 21.744 55.8125 21.6677C55.8125 16.4681 42.343 14.5833 33.2864 14.5833C22.8733 14.5833 11.6665 16.8016 11.6665 21.6677C11.6665 21.7299 11.6754 21.7892 11.6784 21.8485L15.9757 53.4897C16.18 54.6879 16.802 58.3333 32.8925 58.3333C36.633 58.3333 40.5927 57.9574 43.4833 57.3216C44.6946 57.056 45.7785 56.7451 46.7055 56.3975L47.443 56.1291C48.9801 55.5752 50.5675 55.0044 50.5527 53.4841L52.5014 41.7426C53.8253 42.0167 54.8382 42.1439 55.5697 42.1439C56.9379 42.1439 57.4592 41.7624 57.8205 41.3526C58.2529 40.8609 58.4188 40.2421 58.2914 39.6091C58.0337 38.3488 56.6655 37.1449 53.541 35.4692Z" fill="white"/>
</g>
<defs>
<clipPath id="clip0_624_2875">
<rect width="70" height="70" fill="white"/>
</clipPath>
</defs>
</svg>
