<svg width="70" height="70" viewBox="0 0 70 70" fill="none" xmlns="http://www.w3.org/2000/svg">
<g clip-path="url(#clip0_625_2880)">
<path d="M70 0H0V70H70V0Z" fill="black"/>
<path fill-rule="evenodd" clip-rule="evenodd" d="M16.6453 14.5834L22.9044 20.8426L20.8423 22.9076L14.5832 16.6455V21.8751H11.6665V13.1251C11.6665 12.3201 12.3198 11.6667 13.1248 11.6667H21.8748V14.5834H16.6453ZM22.9044 49.1576L16.6453 55.4167H21.8748V58.3334H13.1248C12.3198 58.3334 11.6665 57.6801 11.6665 56.8751V48.1251H14.5832V53.3547L20.8423 47.0926L22.9044 49.1576ZM14.5832 35.0001C14.5832 37.1876 17.4007 39.4976 21.9303 41.0347L20.9969 43.7967C15.0673 41.7901 11.6665 38.5817 11.6665 35.0001C11.6665 31.4184 15.0673 28.2101 20.9969 26.2034L21.9303 28.9655C17.4007 30.5026 14.5832 32.8126 14.5832 35.0001ZM55.4165 48.1251H58.3332V56.8751C58.3332 57.6801 57.6798 58.3334 56.8748 58.3334H48.1248V55.4167H53.3544L47.0923 49.1576L49.1544 47.0926L55.4165 53.3547V48.1251ZM58.3332 13.1251V21.8751H55.4165V16.6455L49.1544 22.9076L47.0923 20.8426L53.3544 14.5834H48.1248V11.6667H56.8748C57.6798 11.6667 58.3332 12.3201 58.3332 13.1251ZM58.3332 35.0001C58.3332 38.5817 54.9323 41.7901 49.0028 43.7967L48.0665 41.0347C52.599 39.4976 55.4165 37.1876 55.4165 35.0001C55.4165 32.8126 52.599 30.5026 48.0665 28.9655L49.0028 26.2034C54.9323 28.2101 58.3332 31.4184 58.3332 35.0001ZM34.9998 44.9226C31.529 44.9226 29.4203 44.0534 29.1665 43.8434V31.0655C30.8115 31.7509 32.9407 32.0834 34.9998 32.0834C37.0648 32.0834 39.1969 31.7509 40.8448 31.0626L40.8915 43.6101C40.5794 44.0534 38.4707 44.9226 34.9998 44.9226ZM34.9998 26.2501C38.424 26.2501 40.419 27.2301 40.7953 27.7084C40.419 28.1867 38.424 29.1667 34.9998 29.1667C31.4153 29.1667 29.3998 28.0934 29.1665 27.7988V27.7697C29.3998 27.3234 31.4153 26.2501 34.9998 26.2501ZM34.9998 23.3334C30.7853 23.3334 26.2498 24.7013 26.2498 27.7084V43.8434C26.2498 46.6055 30.6453 47.8393 34.9998 47.8393C39.3544 47.8393 43.7498 46.6055 43.7498 43.8434V27.7084C43.7498 24.7013 39.2144 23.3334 34.9998 23.3334Z" fill="white"/>
</g>
<defs>
<clipPath id="clip0_625_2880">
<rect width="70" height="70" fill="white"/>
</clipPath>
</defs>
</svg>
