<svg width="70" height="70" viewBox="0 0 70 70" fill="none" xmlns="http://www.w3.org/2000/svg">
<g clip-path="url(#clip0_527_259)">
<path d="M51.7363 0H28.4783H26.676L25.4025 1.2734L7.79586 18.8811L6.52246 20.1545V21.9559V58.2567C6.52246 64.7317 11.79 70.0001 18.2661 70.0001H51.7363C58.2104 70.0001 63.4779 64.7317 63.4779 58.2567V11.7436C63.4779 5.2675 58.2104 0 51.7363 0ZM59.1306 58.2565C59.1306 62.3413 55.8201 65.6518 51.7363 65.6518H18.2661C14.1804 65.6518 10.8698 62.3413 10.8698 58.2565V21.9558H22.3154C25.7176 21.9558 28.4783 19.1971 28.4783 15.7939V4.3482H51.7363C55.8201 4.3482 59.1306 7.65871 59.1306 11.7436V58.2565Z" fill="white"/>
<path d="M23.1841 36.7704C23.9821 36.7704 24.4287 37.0672 24.8929 37.6982C25.2633 38.2184 25.6356 38.4046 26.0995 38.4046C26.7869 38.4046 27.3443 37.9024 27.3443 37.1789C27.3443 36.8821 27.2508 36.6214 27.1017 36.3617C26.4698 35.2286 25.078 34.3562 23.1841 34.3562C20.9732 34.3562 19.339 35.3957 18.6707 37.4577C18.4111 38.293 18.3193 38.9431 18.3193 40.8741C18.3193 42.8053 18.4109 43.4555 18.6707 44.2907C19.339 46.3526 20.9732 47.3922 23.1841 47.3922C25.078 47.3922 26.4698 46.5197 27.1017 45.3865C27.2508 45.1269 27.3443 44.8663 27.3443 44.5695C27.3443 43.8449 26.7867 43.3438 26.0995 43.3438C25.6356 43.3438 25.2633 43.5299 24.8929 44.0493C24.4289 44.6812 23.9821 44.9782 23.1841 44.9782C22.1626 44.9782 21.5689 44.4398 21.2901 43.5854C21.1412 43.1215 21.0858 42.6757 21.0858 40.8743C21.0858 39.073 21.1413 38.6272 21.2901 38.1633C21.5689 37.3088 22.1626 36.7704 23.1841 36.7704Z" fill="white"/>
<path d="M34.8839 39.5931L34.2156 39.4996C32.7493 39.2953 32.2471 38.8133 32.2471 38.1068C32.2471 37.3088 32.8409 36.7513 33.9558 36.7513C34.7349 36.7513 35.5157 36.9747 36.1286 37.2715C36.3882 37.4014 36.667 37.4757 36.9266 37.4757C37.5949 37.4757 38.1161 36.9745 38.1161 36.2872C38.1161 35.8414 37.9118 35.4701 37.465 35.1913C36.7223 34.7273 35.3305 34.356 33.9368 34.356C31.2066 34.356 29.4616 35.8966 29.4616 38.2183C29.4616 40.4473 30.8726 41.654 33.4538 42.0072L34.1239 42.0997C35.6264 42.304 36.0732 42.768 36.0732 43.5106C36.0732 44.3841 35.3478 44.9971 34.0112 44.9971C33.0833 44.9971 32.3406 44.7555 31.3001 44.1799C31.0767 44.0492 30.798 43.9565 30.5021 43.9565C29.7958 43.9565 29.2764 44.4949 29.2764 45.164C29.2764 45.6089 29.4998 46.0365 29.9255 46.3152C30.7617 46.8345 32.1172 47.392 33.9005 47.392C37.1861 47.392 38.8587 45.7024 38.8587 43.418C38.8588 41.1339 37.5031 39.9644 34.8839 39.5931Z" fill="white"/>
<path d="M46.3064 39.5931L45.6381 39.4996C44.1701 39.2953 43.6697 38.8133 43.6697 38.1068C43.6697 37.3088 44.2636 36.7513 45.3765 36.7513C46.1574 36.7513 46.9382 36.9747 47.5492 37.2715C47.8107 37.4014 48.0895 37.4757 48.3491 37.4757C49.0173 37.4757 49.5367 36.9745 49.5367 36.2872C49.5367 35.8414 49.3324 35.4701 48.8875 35.1913C48.1449 34.7273 46.7512 34.356 45.3594 34.356C42.6292 34.356 40.8842 35.8966 40.8842 38.2183C40.8842 40.4473 42.2951 41.654 44.8763 42.0072L45.5446 42.0997C47.0491 42.304 47.494 42.768 47.494 43.5106C47.494 44.3841 46.7704 44.9971 45.4339 44.9971C44.5042 44.9971 43.7615 44.7555 42.7229 44.1799C42.4995 44.0492 42.2207 43.9565 41.9229 43.9565C41.2184 43.9565 40.6973 44.4949 40.6973 45.164C40.6973 45.6089 40.9207 46.0365 41.3483 46.3152C42.1846 46.8345 43.5402 47.392 45.3214 47.392C48.609 47.392 50.2796 45.7024 50.2796 43.418C50.2796 41.1339 48.924 39.9644 46.3064 39.5931Z" fill="white"/>
</g>
<defs>
<clipPath id="clip0_527_259">
<rect width="70" height="70" fill="white"/>
</clipPath>
</defs>
</svg>
