<svg width="70" height="70" viewBox="0 0 70 70" fill="none" xmlns="http://www.w3.org/2000/svg">
<path d="M12.6875 53.8125L13.0594 53.2941L30.6031 20.0135L30.6403 19.6613L22.9075 5.13627C22.7659 4.87066 22.5444 4.65628 22.2743 4.52348C22.0042 4.39067 21.6992 4.34615 21.4024 4.39622C21.1056 4.44629 20.8321 4.58841 20.6205 4.80248C20.4089 5.01655 20.27 5.29173 20.2234 5.58908L12.6875 53.8125Z" fill="white"/>
<path d="M12.9062 53.4187L13.1862 52.8718L30.5484 19.9368L22.8353 5.35491C22.7081 5.10132 22.5022 4.89577 22.2483 4.76906C21.9945 4.64234 21.7065 4.60128 21.4273 4.65203C21.1482 4.70278 20.893 4.84261 20.7001 5.05056C20.5071 5.25852 20.3867 5.5234 20.3569 5.80554L12.9062 53.4187Z" fill="#EAE8E8"/>
<path d="M36.2776 30.647L42.0351 24.7407L36.2754 13.7573C36.1486 13.5209 35.9601 13.3233 35.7299 13.1856C35.4998 13.0478 35.2366 12.9751 34.9683 12.9751C34.7001 12.9751 34.4369 13.0478 34.2067 13.1856C33.9766 13.3233 33.7881 13.5209 33.6613 13.7573L30.5835 19.6241V20.1251L36.2776 30.647Z" fill="white"/>
<path d="M36.1748 30.4063L41.7726 24.6751L36.1748 14.0001C36.0831 13.769 35.9266 13.5693 35.7241 13.4252C35.5216 13.2811 35.2817 13.1986 35.0334 13.1878C34.785 13.1769 34.5389 13.2381 34.3245 13.364C34.1102 13.4899 33.9368 13.6751 33.8254 13.8972L30.7323 19.8669L30.6404 20.171L36.1748 30.4063Z" fill="#EAE8E8"/>
<path d="M12.6919 53.8147L12.8603 53.6441L13.4706 53.3969L35.9144 31.0363L36.1988 30.2619L30.601 19.5913L12.6919 53.8147Z" fill="#CFCECE"/>
<path d="M36.995 65.0912L57.3125 53.7621L51.5069 18.0381C51.4653 17.7862 51.3551 17.5507 51.1884 17.3574C51.0217 17.1641 50.805 17.0205 50.562 16.9423C50.319 16.8641 50.0592 16.8543 49.811 16.9141C49.5629 16.9739 49.336 17.1009 49.1553 17.2812L12.6875 53.8125L32.8847 65.089C33.5126 65.4394 34.2197 65.6233 34.9387 65.6233C35.6578 65.6233 36.3649 65.4394 36.9928 65.089" fill="white"/>
<path d="M57.1266 53.6682L51.3691 18.2132C51.3589 17.9723 51.2775 17.7399 51.1352 17.5453C50.9929 17.3507 50.796 17.2027 50.5695 17.12C50.3431 17.0373 50.0971 17.0237 49.8629 17.0809C49.6287 17.138 49.4167 17.2633 49.2538 17.441L12.9062 53.7448L32.8803 64.901C33.5032 65.2485 34.2047 65.4309 34.918 65.4309C35.6313 65.4309 36.3327 65.2485 36.9556 64.901L57.1266 53.6682Z" fill="white"/>
<path d="M36.995 64.7501C36.3671 65.1005 35.66 65.2844 34.9409 65.2844C34.2219 65.2844 33.5148 65.1005 32.8869 64.7501L12.8537 53.642L12.6875 53.8126L32.8847 65.0892C33.5126 65.4396 34.2197 65.6235 34.9387 65.6235C35.6578 65.6235 36.3649 65.4396 36.9928 65.0892L57.3125 53.7623L57.2622 53.4561L36.995 64.7501Z" fill="white"/>
</svg>
