<svg width="70" height="70" viewBox="0 0 70 70" fill="none" xmlns="http://www.w3.org/2000/svg">
<g clip-path="url(#clip0_527_330)">
<path d="M51.7361 0H28.478H26.6758L25.4023 1.2734L7.79562 18.8811L6.52222 20.1545V21.9559V58.2567C6.52222 64.7317 11.7897 70.0001 18.2658 70.0001H51.7361C58.2101 70.0001 63.4776 64.7317 63.4776 58.2567V11.7436C63.4776 5.2675 58.2101 0 51.7361 0ZM59.1304 58.2565C59.1304 62.3413 55.8199 65.6518 51.7361 65.6518H18.2658C14.1801 65.6518 10.8696 62.3413 10.8696 58.2565V21.9558H22.3151C25.7174 21.9558 28.478 19.1971 28.478 15.7939V4.3482H51.7361C55.8199 4.3482 59.1304 7.65871 59.1304 11.7436V58.2565Z" fill="white"/>
<path d="M22.3076 34.6157C21.6107 34.6157 21.0953 35.115 21.0953 35.9121V39.1186C21.0953 39.1854 21.061 39.2189 20.996 39.2189H17.3056C17.2407 39.2189 17.2063 39.1854 17.2063 39.1186V35.9121C17.2063 35.1149 16.6908 34.6157 15.9939 34.6157C15.28 34.6157 14.7644 35.115 14.7644 35.9121V44.8185C14.7644 45.6156 15.2627 46.1139 15.9768 46.1139C16.6756 46.1139 17.2063 45.6156 17.2063 44.8185V41.4955C17.2063 41.4287 17.2407 41.3952 17.3056 41.3952H20.996C21.061 41.3952 21.0953 41.4286 21.0953 41.4955V44.8185C21.0953 45.6156 21.6107 46.1139 22.3076 46.1139C23.0217 46.1139 23.5371 45.6156 23.5371 44.8185V35.9121C23.5371 35.1149 23.0217 34.6157 22.3076 34.6157Z" fill="white"/>
<path d="M32.1629 34.7161H25.6983C24.9518 34.7161 24.4688 35.1648 24.4688 35.813C24.4688 36.4439 24.9518 36.8926 25.6983 36.8926H27.6093C27.676 36.8926 27.7086 36.926 27.7086 36.9919V44.8186C27.7086 45.5994 28.2241 46.114 28.9229 46.114C29.637 46.114 30.1524 45.5994 30.1524 44.8186V36.9919C30.1524 36.926 30.1848 36.8926 30.2517 36.8926H32.1627C32.9092 36.8926 33.3922 36.4439 33.3922 35.813C33.3924 35.1646 32.9094 34.7161 32.1629 34.7161Z" fill="white"/>
<path d="M43.511 34.6157C42.7799 34.6157 42.3808 35.0148 42.0161 35.8787L39.6564 41.3286H39.5895L37.1801 35.8787C36.7981 35.0148 36.3992 34.6157 35.668 34.6157C34.8548 34.6157 34.322 35.1809 34.322 36.0782V44.935C34.322 45.6824 34.788 46.1139 35.4524 46.1139C36.0843 46.1139 36.5501 45.6824 36.5501 44.935V39.4843H36.6322L38.3945 43.5384C38.7419 44.3364 39.0245 44.5694 39.5897 44.5694C40.1547 44.5694 40.4373 44.3364 40.7868 43.5384L42.5318 39.4843H42.614V44.935C42.614 45.6824 43.0626 46.1139 43.727 46.1139C44.3934 46.1139 44.8421 45.6824 44.8421 44.935V36.0782C44.8418 35.1808 44.3263 34.6157 43.511 34.6157Z" fill="white"/>
<path d="M53.2328 43.8382H49.2122C49.1453 43.8382 49.1129 43.8049 49.1129 43.7379V35.9121C49.1129 35.1312 48.5975 34.6157 47.9007 34.6157C47.1847 34.6157 46.6711 35.1312 46.6711 35.9121V44.785C46.6711 45.5163 47.1521 46.0145 47.9007 46.0145H53.233C53.9815 46.0145 54.4626 45.5658 54.4626 44.9178C54.4625 44.2868 53.9814 43.8382 53.2328 43.8382Z" fill="white"/>
</g>
<defs>
<clipPath id="clip0_527_330">
<rect width="70" height="70" fill="white"/>
</clipPath>
</defs>
</svg>
