<svg width="70" height="70" viewBox="0 0 70 70" fill="none" xmlns="http://www.w3.org/2000/svg">
<g clip-path="url(#clip0_527_198)">
<path d="M0 0H70V70H0V0Z" fill="white"/>
<path d="M18.4055 58.4969L23.7622 55.2551C24.7958 57.0874 25.7359 58.6378 27.9909 58.6378C30.1524 58.6378 31.5155 57.7923 31.5155 54.5034V32.1367H38.0936V54.5964C38.0936 61.4096 34.0998 64.5109 28.2728 64.5109C23.0105 64.5109 19.9559 61.7856 18.4053 58.4964M41.6666 57.792L47.0227 54.691C48.4328 56.9936 50.2654 58.6851 53.5073 58.6851C56.2332 58.6851 57.9711 57.3223 57.9711 55.4426C57.9711 53.1873 56.1856 52.3883 53.1783 51.0731L51.5341 50.3676C46.7881 48.3478 43.64 45.8103 43.64 40.4536C43.64 35.5197 47.3989 31.7605 53.2727 31.7605C57.4546 31.7605 60.4619 33.2174 62.6231 37.0233L57.5011 40.3128C56.3732 38.2924 55.152 37.4937 53.2724 37.4937C51.3457 37.4937 50.124 38.7154 50.124 40.3128C50.124 42.2862 51.3457 43.0855 54.1649 44.3072L55.8093 45.0118C61.4011 47.4085 64.5492 49.8517 64.5492 55.3489C64.5492 61.2699 59.8975 64.5117 53.6481 64.5117C47.5398 64.5117 43.5927 61.5985 41.6663 57.7923" fill="black"/>
</g>
<defs>
<clipPath id="clip0_527_198">
<rect width="70" height="70" fill="white"/>
</clipPath>
</defs>
</svg>
