<svg width="70" height="70" viewBox="0 0 70 70" fill="none" xmlns="http://www.w3.org/2000/svg">
<g clip-path="url(#clip0_621_2847)">
<path fill-rule="evenodd" clip-rule="evenodd" d="M0 0H70V70H0V0Z" fill="white"/>
<path fill-rule="evenodd" clip-rule="evenodd" d="M29.1875 36.9432C29.1875 36.9432 27.5156 37.9161 30.3787 38.2447C33.8482 38.6409 35.6204 38.5839 39.4426 37.8609C39.4426 37.8609 40.4489 38.4909 41.8536 39.036C33.2828 42.7086 22.4565 38.8236 29.1875 36.9432ZM28.1398 32.1506C28.1398 32.1506 26.2641 33.539 29.1298 33.8353C32.8361 34.2181 35.7617 34.2493 40.8273 33.2746C40.8273 33.2746 41.5268 33.9846 42.6275 34.3724C32.2663 37.4029 20.7268 34.611 28.1398 32.1506Z" fill="black"/>
<path fill-rule="evenodd" clip-rule="evenodd" d="M36.9678 24.0202C39.0806 26.4522 36.4139 28.6395 36.4139 28.6395C36.4139 28.6395 41.7763 25.8719 39.3134 22.4048C37.0139 19.1731 35.25 17.5676 44.7977 12.031C44.7977 12.031 29.8104 15.7726 36.9678 24.0202Z" fill="black"/>
<path fill-rule="evenodd" clip-rule="evenodd" d="M48.3032 40.4883C48.3032 40.4883 49.5409 41.5088 46.94 42.2979C41.9942 43.7959 26.3513 44.2477 22.0062 42.3575C20.4454 41.6777 23.3739 40.7353 24.2952 40.5363C25.2561 40.3285 25.8044 40.3663 25.8044 40.3663C24.0675 39.1432 14.5772 42.7686 20.9847 43.8086C38.4567 46.6416 52.8347 42.5332 48.3032 40.4883ZM29.992 27.1846C29.992 27.1846 22.036 29.0748 27.175 29.7619C29.3455 30.052 33.6692 29.9852 37.6999 29.6471C40.993 29.3708 44.2984 28.7795 44.2984 28.7795C44.2984 28.7795 43.1381 29.2774 42.2974 29.8505C34.2169 31.976 18.6093 30.9861 23.1029 28.8133C26.9022 26.9754 29.992 27.1846 29.992 27.1846ZM44.2653 35.162C52.4788 30.8949 48.6813 26.7935 46.0299 27.3462C45.3817 27.4816 45.0908 27.5986 45.0908 27.5986C45.0908 27.5986 45.3326 27.2202 45.7924 27.0575C51.0367 25.2145 55.0692 32.4946 44.1016 35.3777C44.1012 35.3777 44.2276 35.2636 44.2653 35.162Z" fill="black"/>
<path fill-rule="evenodd" clip-rule="evenodd" d="M39.3135 3.08813C39.3135 3.08813 43.8612 7.63881 34.9988 14.6342C27.8916 20.2479 33.3785 23.4476 34.9967 27.1049C30.8473 23.3619 27.8037 20.0663 29.8453 16.9998C32.8428 12.4985 41.1485 10.3156 39.3135 3.08813Z" fill="black"/>
<path fill-rule="evenodd" clip-rule="evenodd" d="M30.7996 46.7284C38.6822 47.2325 50.7894 46.4484 51.0766 42.7178C51.0766 42.7178 50.5253 44.1319 44.5613 45.2537C37.8324 46.5204 29.5318 46.3729 24.6104 45.5605C24.6104 45.5605 25.6188 46.3951 30.7996 46.7284Z" fill="black"/>
<path fill-rule="evenodd" clip-rule="evenodd" d="M50.7124 53.4183H50.4727V53.284H51.1195V53.4183H50.8798V54.0894H50.7124V53.4183ZM52.003 53.4518H52.0001L51.7619 54.0891H51.6526L51.4158 53.4518H51.4129V54.0891H51.2539V53.2836H51.4874L51.7067 53.8534L51.926 53.2836H52.1574V54.0891H52.0034L52.003 53.4518ZM29.5079 60.981C28.7645 61.6252 27.9786 61.9877 27.273 61.9877C26.2678 61.9877 25.7224 61.3837 25.7224 60.4174C25.7224 59.3712 26.3063 58.6056 28.6436 58.6056H29.5075L29.5079 60.981ZM31.5597 63.2958V56.13C31.5597 54.2986 30.5153 53.0901 27.9975 53.0901C26.5286 53.0901 25.2408 53.4528 24.1938 53.9151L24.4953 55.1844C25.32 54.8815 26.3862 54.6008 27.4328 54.6008C28.8832 54.6008 29.5075 55.1844 29.5075 56.3926V57.2986H28.7826C25.2593 57.2986 23.6694 58.6655 23.6694 60.7206C23.6694 62.4914 24.7171 63.498 26.6894 63.498C27.9572 63.498 28.9043 62.9747 29.7886 62.2088L29.9495 63.2958H31.5597ZM38.4077 63.2958H35.8492L32.7686 53.2724H35.0035L36.9155 59.4318L37.3411 61.2824C38.3056 58.6056 38.9902 55.8881 39.3326 53.2724H41.5057C40.924 56.5727 39.8759 60.1962 38.4077 63.2958ZM48.2262 60.981C47.4807 61.6252 46.6948 61.9877 45.9907 61.9877C44.9855 61.9877 44.4407 61.3837 44.4407 60.4174C44.4407 59.3712 45.025 58.6056 47.3608 58.6056H48.2262V60.981ZM50.2788 63.2958V56.13C50.2788 54.2986 49.2311 53.0901 46.7159 53.0901C45.2455 53.0901 43.9581 53.4528 42.9111 53.9151L43.2125 55.1844C44.0373 54.8815 45.1057 54.6008 46.1526 54.6008C47.6009 54.6008 48.2259 55.1844 48.2259 56.3926V57.2986H47.501C43.9773 57.2986 42.3885 58.6655 42.3885 60.7206C42.3885 62.4914 43.4341 63.498 45.4067 63.498C46.6756 63.498 47.6212 62.9747 48.5077 62.2088L48.6693 63.2958H50.2788ZM21.4197 64.9989C20.835 65.8534 19.8894 66.53 18.8555 66.9117L17.8423 65.7183C18.63 65.3142 19.3047 64.6616 19.6188 64.0544C19.8894 63.5133 20.0023 62.8175 20.0023 61.1521V49.7073H22.1831V60.9941C22.1831 63.2217 22.0051 64.1219 21.4197 64.9989Z" fill="black"/>
</g>
<defs>
<clipPath id="clip0_621_2847">
<rect width="70" height="70" fill="white"/>
</clipPath>
</defs>
</svg>
