<svg width="70" height="70" viewBox="0 0 70 70" fill="none" xmlns="http://www.w3.org/2000/svg">
<path d="M59.2572 34.532C59.2572 33.0201 58.6566 31.5701 57.5876 30.501C56.5185 29.432 55.0685 28.8314 53.5566 28.8314C53.3564 28.8311 53.1564 28.8414 52.9572 28.862L60.7885 5.76636H27.51L35.3304 28.8423C35.2166 28.8423 35.1007 28.8314 34.9847 28.8314C33.6234 28.8298 32.3065 29.3154 31.2721 30.2005C30.2377 31.0855 29.5542 32.3114 29.3452 33.6566C29.1361 35.0018 29.4154 36.3773 30.1324 37.5345C30.8494 38.6917 31.9568 39.5541 33.2544 39.9657C32.0418 42.0536 30.5319 43.954 28.7722 45.6073C26.4816 47.797 23.7603 49.4859 20.7813 50.5664C19.1122 49.7754 17.8069 48.3787 17.1304 46.66C16.4539 44.9414 16.457 43.0297 17.1391 41.3132C17.3075 40.9195 17.4782 40.5214 17.64 40.1232C18.9111 39.8239 20.0409 39.0974 20.8407 38.0652C21.6405 37.033 22.0618 35.7575 22.0343 34.452C22.0068 33.1465 21.532 31.8899 20.6894 30.8923C19.8467 29.8948 18.6873 29.2166 17.4047 28.9711C16.1222 28.7257 14.7943 28.9278 13.6428 29.5437C12.4914 30.1597 11.5862 31.1521 11.0786 32.3552C10.5709 33.5583 10.4915 34.8992 10.8536 36.1538C11.2157 37.4084 11.9975 38.5007 13.0682 39.2482C11.2485 42.5476 9.85978 46.0669 8.93598 49.7198C8.1616 54.3901 8.93598 59.3448 12.9719 62.147C22.3782 68.6679 32.5916 58.1045 43.3585 55.451C47.261 54.4885 51.5441 54.6439 54.9807 52.6532C56.2222 51.9461 57.2929 50.9743 58.1167 49.8069C58.9405 48.6395 59.4972 47.305 59.7472 45.8982C59.9759 44.5578 59.9328 43.185 59.6205 41.8615C59.3083 40.538 58.7332 39.2907 57.9294 38.1939C58.787 37.169 59.2563 35.8749 59.255 34.5385L59.2572 34.532ZM40.6875 34.5626V34.5429C40.6892 33.5619 40.437 32.5971 39.9556 31.7424C39.4742 30.8876 38.7798 30.1719 37.94 29.6648L44.1613 17.0626L50.3957 29.7807C49.6135 30.3005 48.9723 31.0058 48.5291 31.8337C48.086 32.6616 47.8547 33.5864 47.856 34.5254C47.856 34.567 47.856 34.6085 47.856 34.6501L40.6875 34.5626Z" fill="#808080"/>
<path d="M60.6504 34.5319C60.6482 32.879 60.0696 31.2786 59.0143 30.0064C57.9589 28.7342 56.493 27.87 54.8689 27.5625L62.7308 4.375H25.5695L33.4445 27.6084C32.0697 27.9157 30.8176 28.6256 29.848 29.6476C28.8784 30.6695 28.2352 31.9571 28.0004 33.3462C27.7657 34.7352 27.9501 36.1627 28.5302 37.4464C29.1102 38.7302 30.0595 39.8121 31.257 40.5541C30.2677 42.0237 29.1173 43.3782 27.827 44.5922C25.8298 46.5031 23.4827 48.0108 20.9145 49.0328C19.7092 48.3332 18.7956 47.2236 18.3403 45.9065C17.8849 44.5894 17.9181 43.1525 18.4339 41.8578L18.5214 41.6544L18.6833 41.2716C20.1412 40.7661 21.3947 39.7993 22.254 38.5176C23.1133 37.236 23.5315 35.7092 23.4454 34.1685C23.3592 32.6278 22.7734 31.1572 21.7766 29.9793C20.7798 28.8014 19.4263 27.9804 17.9211 27.6406C16.4159 27.3008 14.841 27.4607 13.4349 28.0962C12.0287 28.7316 10.8679 29.8079 10.1282 31.1622C9.38856 32.5164 9.11033 34.0748 9.33566 35.6013C9.56099 37.1279 10.2776 38.5394 11.377 39.6222C11.1408 40.1275 10.8914 40.6394 10.6354 41.1666C9.21714 43.7743 8.18551 46.5745 7.57295 49.4791C6.55576 55.6041 8.19638 60.5106 12.1908 63.2778C14.335 64.8112 16.9068 65.6322 19.5429 65.625C24.2067 65.625 28.9251 63.2822 33.5429 60.9897C36.7694 59.235 40.1733 57.8285 43.6973 56.7941C44.9595 56.4834 46.2589 56.2953 47.6348 56.0963C50.438 55.8723 53.1714 55.1087 55.6848 53.8475C57.1022 53.0379 58.3243 51.9265 59.2644 50.5921C60.2045 49.2576 60.8398 47.7328 61.1251 46.1256C61.5899 43.3951 61.0531 40.5885 59.6136 38.2222C60.2945 37.111 60.6542 35.8329 60.6526 34.5297L60.6504 34.5319ZM57.8658 34.5319C57.8658 35.3842 57.613 36.2174 57.1395 36.926C56.666 37.6347 55.9929 38.1871 55.2055 38.5132C54.4181 38.8394 53.5516 38.9247 52.7157 38.7585C51.8797 38.5922 51.1119 38.1817 50.5092 37.5791C49.9065 36.9764 49.4961 36.2085 49.3298 35.3726C49.1635 34.5367 49.2489 33.6702 49.575 32.8828C49.9012 32.0953 50.4535 31.4223 51.1622 30.9488C51.8709 30.4752 52.7041 30.2225 53.5564 30.2225C54.6989 30.2237 55.7944 30.6781 56.6023 31.486C57.4102 32.2939 57.8646 33.3893 57.8658 34.5319ZM58.8436 7.15969L51.9004 27.6347C51.6031 27.7066 51.3108 27.798 51.0254 27.9081L44.1676 13.9081L37.2879 27.825C36.9884 27.7212 36.6822 27.6379 36.3714 27.5756L29.4523 7.15969H58.8436ZM34.9845 30.2225C35.8368 30.2225 36.67 30.4752 37.3787 30.9488C38.0873 31.4223 38.6397 32.0953 38.9659 32.8828C39.292 33.6702 39.3774 34.5367 39.2111 35.3726C39.0448 36.2085 38.6344 36.9764 38.0317 37.5791C37.429 38.1817 36.6612 38.5922 35.8252 38.7585C34.9893 38.9247 34.1228 38.8394 33.3354 38.5132C32.5479 38.1871 31.8749 37.6347 31.4014 36.926C30.9279 36.2174 30.6751 35.3842 30.6751 34.5319C30.6763 33.3893 31.1307 32.2939 31.9386 31.486C32.7465 30.6781 33.8419 30.2237 34.9845 30.2225ZM16.3426 30.2641C17.1953 30.2645 18.0287 30.5179 18.7373 30.9922C19.4459 31.4664 19.9979 32.1403 20.3235 32.9284C20.649 33.7165 20.7333 34.5834 20.5659 35.4195C20.3985 36.2556 19.9868 37.0233 19.383 37.6253C18.7791 38.2273 18.0102 38.6366 17.1736 38.8015C16.337 38.9664 15.4703 38.8793 14.6832 38.5514C13.8961 38.2235 13.224 37.6695 12.7519 36.9594C12.2798 36.2493 12.0289 35.4152 12.0311 34.5625C12.0322 33.4199 12.4866 32.3245 13.2945 31.5166C14.1024 30.7087 15.1979 30.2543 16.3404 30.2531L16.3426 30.2641ZM58.3798 45.6509C58.1636 46.8568 57.6849 48.0003 56.9776 49.0005C56.2703 50.0008 55.3518 50.8333 54.287 51.4391C52.0778 52.5117 49.6857 53.1567 47.2367 53.34C45.8542 53.5391 44.4258 53.7447 43.0279 54.0903C39.3069 55.1678 35.7131 56.6442 32.3092 58.4938C25.3879 61.9303 19.4029 64.8988 13.7767 60.9941C9.64888 58.1328 9.8392 52.8391 10.3204 49.9384C10.8868 47.2988 11.8313 44.7547 13.1248 42.385C13.3261 41.9716 13.5229 41.5647 13.7154 41.1622C14.303 41.3971 14.9196 41.5516 15.5486 41.6216C14.9918 43.5881 15.1474 45.688 15.9878 47.551C16.8283 49.414 18.2996 50.9203 20.1423 51.8044L20.6783 52.08L21.2448 51.8788C24.4051 50.7381 27.2922 48.9499 29.7214 46.6288C31.3259 45.1193 32.7354 43.4152 33.917 41.5559C35.4288 41.7859 36.9745 41.5209 38.3234 40.8004C39.6722 40.0799 40.752 38.9426 41.4015 37.5582C42.051 36.1737 42.2355 34.6164 41.9274 33.1185C41.6193 31.6207 40.8352 30.2626 39.692 29.2469L44.1501 20.2322L48.6542 29.4197C47.3727 30.6547 46.6027 32.3267 46.4974 34.1034C46.392 35.88 46.9589 37.6313 48.0854 39.0091C49.212 40.387 50.8157 41.2906 52.5778 41.5404C54.34 41.7901 56.1316 41.3677 57.5967 40.3572C58.409 41.9968 58.6809 43.8516 58.3733 45.6553L58.3798 45.6509Z" fill="white"/>
</svg>
