<svg width="70" height="70" viewBox="0 0 70 70" fill="none" xmlns="http://www.w3.org/2000/svg">
<g clip-path="url(#clip0_622_2867)">
<path d="M35 70C54.33 70 70 54.33 70 35C70 15.67 54.33 0 35 0C15.67 0 0 15.67 0 35C0 54.33 15.67 70 35 70Z" fill="black"/>
<path d="M44.3555 30.7234C42.1448 20.9665 36.9201 17.7584 36.3575 16.5327C35.7423 15.668 35.1188 14.1299 35.1188 14.1299C35.1086 14.1039 35.0922 14.0581 35.073 14.0137C35.0094 14.8784 34.9766 15.212 34.1591 16.0843C32.893 17.0741 26.3975 22.5244 25.8691 33.6096C25.3762 43.9482 33.3374 50.1088 34.414 50.8942L34.5364 50.9811V50.9735C34.5432 51.0255 34.8782 53.4345 35.1134 55.987H35.9569C36.1548 54.1827 36.4515 52.3906 36.8456 50.6187L36.9139 50.5743C37.3955 50.229 37.8547 49.8534 38.2886 49.4498L38.3379 49.4054C40.6265 47.291 44.7411 42.4006 44.7008 34.6035C44.6922 33.3029 44.5768 32.0051 44.3555 30.7234ZM35.0238 45.057C35.0238 45.057 35.0238 30.5566 35.5023 30.5594C35.8756 30.5594 36.3589 49.2632 36.3589 49.2632C35.6944 49.1832 35.0238 46.185 35.0238 45.057Z" fill="white"/>
</g>
<defs>
<clipPath id="clip0_622_2867">
<rect width="70" height="70" fill="white"/>
</clipPath>
</defs>
</svg>
