<svg width="70" height="70" viewBox="0 0 70 70" fill="none" xmlns="http://www.w3.org/2000/svg">
<g clip-path="url(#clip0_527_216)">
<path d="M51.9546 65.6308C51.695 65.7679 51.7096 65.8233 51.9692 65.6921C52.0452 65.6595 52.1144 65.613 52.1734 65.555C52.1734 65.5083 52.1675 65.5142 51.9546 65.6308ZM52.4738 65.3567C52.3513 65.4529 52.3513 65.4587 52.5 65.3829C52.5817 65.3421 52.6517 65.2954 52.6517 65.2808C52.6517 65.2254 52.6167 65.24 52.4738 65.3567ZM52.815 65.1496C52.6925 65.2458 52.6925 65.2517 52.8413 65.1758C52.9229 65.135 52.9929 65.0883 52.9929 65.0737C52.9929 65.0183 52.9579 65.0329 52.815 65.1496ZM53.1563 64.9454C53.0338 65.0417 53.0338 65.0475 53.1825 64.9716C53.2642 64.9308 53.3342 64.8841 53.3342 64.8696C53.3342 64.8141 53.2992 64.8287 53.1563 64.9454ZM53.6288 64.6392C53.3896 64.7908 53.3138 64.8929 53.5267 64.7762C53.6783 64.6887 53.9234 64.5021 53.8825 64.4962C53.7931 64.5346 53.708 64.5826 53.6288 64.6392ZM32.7075 0.0174872C32.5558 0.0320705 32.0775 0.0787372 31.6458 0.113737C21.7058 1.00915 12.3929 6.3729 6.49543 14.6183C3.23507 19.144 1.11583 24.39 0.31793 29.9104C0.0379297 31.8325 0.00292969 32.4012 0.00292969 35.0087C0.00292969 37.6162 0.0379297 38.1821 0.31793 40.1071C2.2196 53.2496 11.5733 64.2921 24.2579 68.3841C26.53 69.1162 28.9246 69.615 31.6458 69.9154C32.7075 70.0321 37.2896 70.0321 38.3513 69.9154C43.05 69.3962 47.0342 68.2325 50.96 66.2287C51.5608 65.9196 51.6775 65.8379 51.5959 65.7708C49.6782 63.237 47.7784 60.6897 45.8967 58.1292L40.2996 50.5691L33.2879 40.1917C30.9566 36.7192 28.6028 33.2619 26.2267 29.82C26.2004 29.8142 26.1713 34.4254 26.1596 40.0546C26.1392 49.9129 26.1333 50.3096 26.0079 50.5429C25.8889 50.8155 25.6756 51.0361 25.4071 51.1642C25.1883 51.275 24.9958 51.2954 23.9633 51.2954H22.7792L22.4642 51.0971C22.2698 50.9746 22.1117 50.8024 22.0063 50.5983L21.8633 50.2892L21.8779 36.5721L21.8983 22.8492L22.1113 22.5837C22.2543 22.4157 22.4262 22.2744 22.6188 22.1667C22.8988 22.0296 23.0096 22.015 24.1938 22.015C25.5908 22.015 25.8213 22.0704 26.1858 22.4671C29.0242 26.6911 31.8388 30.931 34.6296 35.1867C39.1738 42.0758 45.3834 51.4821 48.4371 56.1021L53.9788 64.4962L54.2588 64.3125C56.9253 62.5388 59.3432 60.4171 61.4484 58.0037C65.8582 52.9569 68.7182 46.7448 69.685 40.1129C69.965 38.1908 70 37.6221 70 35.0146C70 32.4071 69.965 31.8412 69.685 29.9162C67.7834 16.7737 58.4296 5.73124 45.745 1.63915C43.3745 0.88446 40.9333 0.373346 38.4592 0.113737C37.8029 0.0466539 33.2792 -0.0291794 32.7133 0.0262372L32.7075 0.0174872ZM47.0342 21.1867C47.1973 21.2686 47.3425 21.3823 47.4611 21.521C47.5798 21.6597 47.6697 21.8207 47.7254 21.9946C47.7809 22.1725 47.7925 25.9758 47.7808 34.5479L47.7604 46.8504L45.5904 43.5254L43.4146 40.2004V31.2579C43.4146 25.4771 43.4408 22.2279 43.4817 22.0704C43.5312 21.8886 43.6165 21.7186 43.7327 21.5703C43.8489 21.4221 43.9937 21.2985 44.1583 21.2071C44.4383 21.0642 44.5404 21.0496 45.6167 21.0496C46.6288 21.0496 46.8067 21.0642 47.0342 21.1867Z" fill="white"/>
</g>
<defs>
<clipPath id="clip0_527_216">
<rect width="70" height="70" fill="white"/>
</clipPath>
</defs>
</svg>
