<svg width="70" height="70" viewBox="0 0 70 70" fill="none" xmlns="http://www.w3.org/2000/svg">
<path d="M49.9601 0C47.2367 0.0240625 44.5373 0.41125 41.9167 1.1725L41.7351 1.23156C40.0923 0.945 38.4189 0.7875 36.7564 0.7525C33.3154 0.693438 30.3623 1.52469 27.9823 2.91594C25.6351 2.10875 20.7701 0.693438 15.6426 0.98C12.0792 1.1725 8.18105 2.25531 5.2848 5.30906C2.4148 8.35188 0.890118 13.0681 1.20731 19.495C1.29699 21.2603 1.80012 24.1413 2.64231 27.8884C3.47356 31.6269 4.64824 36.0019 6.11824 40.0006C7.58824 43.9884 9.19168 47.5759 11.7007 50.0128C12.952 51.2313 14.6845 52.2703 16.7232 52.1806C18.1495 52.1216 19.4357 51.4959 20.5536 50.5728C21.0982 51.2903 21.6823 51.5966 22.2051 51.8831C22.8789 52.2484 23.5154 52.4978 24.1892 52.6597C25.3967 52.9659 27.4595 53.3663 29.8745 52.955C30.6948 52.8172 31.5611 52.5459 32.4273 52.1697C32.4623 53.1256 32.4973 54.0706 32.5301 55.0288C32.6548 58.0475 32.7379 60.8388 33.6348 63.2888C33.7836 63.6891 34.1839 65.7388 35.7545 67.5609C37.3382 69.3831 40.4117 70.5119 43.9336 69.7594C46.4076 69.2344 49.562 68.2784 51.6598 65.2947C53.7336 62.3547 54.6676 58.1284 54.8514 51.2684C54.8951 50.8922 54.9542 50.5859 55.0089 50.2884L55.4989 50.3344H55.5579C58.2004 50.4481 61.0726 50.0719 63.4767 48.9541C65.5942 47.9741 67.202 46.9831 68.3745 45.2178C68.6611 44.7825 68.9892 44.2488 69.0723 43.3366C69.162 42.4375 68.637 41.0113 67.7707 40.3528C66.0404 39.0316 64.9467 39.5325 63.772 39.7841C62.6236 40.0356 61.4467 40.1691 60.2742 40.2041C63.6451 34.5319 66.0601 28.4944 67.4404 23.1591C68.2607 20.0025 68.7179 17.0975 68.7507 14.5578C68.7967 12.0181 68.5823 9.77375 67.0642 7.82688C62.302 1.75438 55.6126 0.065625 50.4414 0.0109375C50.2817 0.0109375 50.1242 0.0109375 49.9623 0.0109375L49.9601 0ZM49.8223 1.87031C54.7114 1.82438 60.9632 3.19156 65.452 8.93156C66.467 10.22 66.7645 12.0991 66.7295 14.4244C66.6945 16.7497 66.2636 19.5169 65.4761 22.5597C63.9623 28.4638 61.077 35.3194 57.0345 41.4859C57.1723 41.5888 57.3298 41.6784 57.4895 41.7375C58.3317 42.0897 60.2567 42.385 64.1067 41.5997C65.0757 41.3919 65.7845 41.2584 66.5239 41.8163C66.8892 42.1225 67.0817 42.5797 67.0576 43.0588C67.0139 43.4109 66.8892 43.7522 66.6704 44.0388C65.9289 45.1522 64.4632 46.2153 62.582 47.0925C60.9195 47.8647 58.5242 48.265 56.4198 48.2891C55.3501 48.3 54.3701 48.2191 53.5345 47.9566L53.4907 47.9478C53.1692 51.0344 52.432 57.1419 51.9507 59.92C51.5657 62.1622 50.892 63.9538 49.6057 65.2859C48.3173 66.6313 46.5061 67.4275 44.0561 67.9525C41.0264 68.6022 38.8257 67.9066 37.4039 66.71C35.982 65.5134 35.3301 63.9188 34.9429 62.9497C34.6717 62.2781 34.5339 61.4119 34.3982 60.2481C34.2604 59.0866 34.1707 57.6734 34.1007 56.0678C34.0111 53.6178 33.9761 51.1678 34.0111 48.7069C32.7489 49.8706 31.1761 50.6319 29.4873 50.9294C27.4726 51.2706 25.6832 50.9294 24.6136 50.6669C24.0886 50.5291 23.5745 50.3366 23.0976 50.0741C22.5967 49.8116 22.1286 49.5163 21.8114 48.9213C21.6276 48.58 21.5729 48.1841 21.6517 47.8078C21.7414 47.4206 21.9689 47.0903 22.2795 46.8388C22.8592 46.3684 23.6248 46.1103 24.7732 45.8697C26.8711 45.4344 27.6104 45.1413 28.0545 44.7847C28.4307 44.4894 28.8661 43.8747 29.6142 42.9734C29.6142 42.9406 29.6142 42.8947 29.6032 42.8597C28.2492 42.8159 26.9257 42.4638 25.7292 41.8119C25.2982 42.2669 23.0517 44.6381 20.3304 47.9194C19.1907 49.2844 17.9264 50.0719 16.5832 50.1309C15.2511 50.1856 14.0392 49.5163 13.0154 48.5231C10.9657 46.5281 9.32293 43.0981 7.89887 39.2241C6.47481 35.35 5.32418 31.0341 4.49293 27.3656C3.67262 23.6841 3.18262 20.7222 3.11262 19.2981C2.80637 13.2256 4.23043 9.13719 6.66731 6.54938C9.10418 3.96156 12.4445 2.99469 15.7039 2.80219C21.5489 2.47188 27.1073 4.51063 28.2251 4.94375C30.3886 3.47375 33.1798 2.56375 36.6667 2.61844C38.3204 2.6425 39.9589 2.85688 41.5667 3.25719L41.6257 3.22219C42.3323 2.98375 43.0498 2.76719 43.7782 2.60969C45.7623 2.13938 47.7879 1.90094 49.8157 1.86813L49.8223 1.87031ZM50.2664 3.81719H49.8354C48.1729 3.83688 46.4951 4.03375 44.8676 4.38594C48.5011 5.99375 51.2464 8.46344 53.1823 10.9484C54.5276 12.6569 55.6323 14.5359 56.4745 16.5419C56.807 17.3184 57.0236 17.9659 57.1373 18.4669C57.2051 18.7184 57.2401 18.9328 57.262 19.1494C57.262 19.2631 57.2729 19.3791 57.2161 19.5716C57.2161 19.5825 57.2051 19.6066 57.2051 19.6175C57.2992 22.1703 56.6604 23.8984 56.5773 26.3375C56.5226 28.105 56.9776 30.1788 57.0914 32.445C57.1942 34.5734 56.9339 36.9097 55.5536 39.2109C55.6673 39.3488 55.7701 39.4844 55.8839 39.6331C59.5414 33.8669 62.1839 27.4991 63.5861 22.0631C64.3386 19.1341 64.7345 16.4806 64.7695 14.3872C64.8045 12.2894 64.4173 10.7625 63.9142 10.1259C59.9942 5.12313 54.6982 3.84563 50.2642 3.815L50.2664 3.81719ZM36.2861 4.5675C32.8473 4.57844 30.3732 5.6175 28.4964 7.17719C26.5561 8.79594 25.2589 10.9944 24.4167 13.2606C23.4017 15.9381 23.0495 18.5347 22.9117 20.3022L22.9576 20.2781C23.9967 19.6984 25.3617 19.1056 26.8317 18.7753C28.2907 18.4319 29.8745 18.3291 31.2964 18.8891C32.7336 19.4338 33.9061 20.7441 34.3392 22.715C36.3932 32.2175 33.7026 35.7503 32.7117 38.4147C32.3354 39.3838 32.0051 40.3638 31.7426 41.3656C31.8673 41.3416 31.9942 41.3066 32.1189 41.2956C32.8254 41.2409 33.3701 41.4684 33.6917 41.6041C34.6957 42.0241 35.3782 42.8903 35.7545 43.8813C35.8442 44.1438 35.912 44.415 35.9579 44.7125C35.9929 44.8263 36.017 44.9509 36.017 45.0778C35.9032 48.7113 35.912 52.3469 36.0498 55.9803C36.1198 57.5531 36.2226 58.9313 36.3473 60.025C36.472 61.1078 36.6426 61.9391 36.7586 62.2234C37.1326 63.1575 37.6795 64.3759 38.6726 65.2072C39.6526 66.0406 41.0636 66.5875 43.6514 66.0406C45.8936 65.5506 47.2739 64.8878 48.1948 63.9319C49.1201 62.9628 49.6648 61.6306 50.017 59.5919C50.5529 56.5272 51.6117 47.6394 51.7386 45.9769C51.6839 44.7103 51.8632 43.7434 52.2745 43.0019C52.6836 42.2494 53.3223 41.7834 53.8823 41.5319C54.1536 41.4072 54.4161 41.3284 54.6326 41.2584C54.4051 40.9413 54.1667 40.6219 53.9261 40.3134C53.1298 39.3444 52.467 38.2638 51.977 37.1131C51.7495 36.6319 51.4979 36.1528 51.2245 35.6978C50.8395 35.0044 50.3495 34.125 49.8354 33.1341C48.8095 31.1741 47.6939 28.7831 47.112 26.4578C46.5323 24.1325 46.4536 21.7306 47.9345 20.0441C49.2448 18.5391 51.557 17.9156 55.0067 18.2678C54.9039 17.9594 54.8492 17.6969 54.6764 17.2988C53.8911 15.4525 52.8651 13.72 51.6336 12.1472C48.7045 8.4 43.9532 4.68344 36.6295 4.55875L36.2861 4.5675ZM16.9201 4.71625C16.5548 4.71625 16.1786 4.72719 15.8154 4.75125C12.8645 4.92406 10.0842 5.775 8.08918 7.88375C6.09637 10.0034 4.78824 13.4553 5.07043 19.1866C5.12949 20.2803 5.59543 23.31 6.40262 26.9216C7.21418 30.5353 8.36262 34.7856 9.74293 38.5438C11.1189 42.2909 12.7857 45.5613 14.3804 47.11C15.1767 47.8734 15.8701 48.1928 16.4979 48.1709C17.1257 48.1359 17.8892 47.7706 18.8232 46.655C20.5207 44.6053 22.2773 42.6213 24.0995 40.6853C21.4767 38.395 20.1904 34.9344 20.7045 31.4913C20.9998 29.3388 21.0457 27.3197 20.9998 25.725C20.967 24.1763 20.862 23.1525 20.862 22.5028C20.862 22.4788 20.862 22.4678 20.862 22.4438V22.4328L20.8511 22.4131C20.8511 19.0509 21.4461 15.7259 22.5836 12.5694C23.4039 10.3906 24.6136 8.19438 26.4336 6.40281C24.6464 5.81 21.4657 4.92406 18.027 4.75125C17.6617 4.72719 17.2832 4.71625 16.9201 4.71625ZM53.0795 20.1184C51.0998 20.1534 49.9929 20.6675 49.4023 21.3259C48.5798 22.2731 48.5011 23.9356 49.0151 25.9875C49.5248 28.0372 50.5879 30.3275 51.5789 32.2328C52.0689 33.1888 52.5479 34.0441 52.9329 34.7375C53.3332 35.4441 53.6176 35.9341 53.7882 36.3672C53.9479 36.7544 54.1317 37.0956 54.3132 37.415C55.0767 35.7963 55.2145 34.2125 55.1336 32.55C55.0307 30.5003 54.5539 28.4025 54.6326 26.285C54.7136 23.8 55.2036 22.1813 55.2386 20.2672C54.5298 20.1775 53.8014 20.1184 53.0839 20.1184H53.0795ZM29.0651 20.4641C28.4614 20.4641 27.8576 20.5428 27.2648 20.6806C26.0901 20.9672 24.9636 21.3981 23.9026 21.9909C23.5504 22.1834 23.2092 22.4022 22.8898 22.6538L22.8198 22.7084C22.8439 23.1438 22.9226 24.1675 22.9576 25.6944C22.9926 27.3569 22.9576 29.4744 22.6404 31.7669C21.9339 36.7566 25.5564 40.8822 29.8067 40.8931C30.0582 39.8672 30.4651 38.8281 30.8764 37.7366C32.0598 34.545 34.3851 32.2219 32.4251 23.1306C32.1079 21.6497 31.4692 21.0459 30.5898 20.7047C30.0998 20.5319 29.5901 20.4531 29.0651 20.4663V20.4641ZM52.1586 21.0547H52.3073C52.4889 21.0656 52.6726 21.0788 52.8301 21.1225C52.9789 21.1575 53.1167 21.2034 53.2304 21.2822C53.3442 21.35 53.4229 21.4638 53.447 21.5994V21.6234C53.447 21.7613 53.412 21.8969 53.3442 22.0238C53.2545 22.1813 53.1517 22.33 53.027 22.4547C52.7295 22.785 52.3292 23.0038 51.8982 23.0694C51.4761 23.1284 51.0561 23.0147 50.7017 22.7741C50.5639 22.6691 50.4282 22.5553 50.3254 22.4306C50.2226 22.3278 50.1657 22.1922 50.1417 22.0544C50.1329 21.9209 50.1657 21.7831 50.2554 21.6803C50.3604 21.5753 50.4742 21.4856 50.5989 21.4178C50.8811 21.2581 51.2573 21.1444 51.6926 21.0853C51.8501 21.0656 52.0098 21.0525 52.1586 21.0416V21.0547ZM29.3473 21.5447C29.4961 21.5447 29.6689 21.5556 29.8286 21.5775C30.2836 21.6475 30.6707 21.7613 30.977 21.9428C31.1257 22.0128 31.2636 22.1266 31.3642 22.2513C31.4779 22.3891 31.5326 22.5575 31.5239 22.7413C31.4889 22.9097 31.4189 23.0716 31.3051 23.1963C31.1804 23.345 31.0448 23.4697 30.8851 23.5725C30.5089 23.8459 30.0429 23.9597 29.5748 23.9028C29.1045 23.8241 28.6736 23.5966 28.3564 23.2444C28.2186 23.0956 28.1048 22.9359 28.0129 22.7653C27.9101 22.6056 27.8664 22.4241 27.8882 22.2403C27.9342 21.9341 28.1967 21.7613 28.4482 21.6716C28.7348 21.5775 29.0411 21.5469 29.3473 21.5578V21.5447ZM55.7701 42.9625H55.7592C55.3392 43.1222 54.987 43.1813 54.6895 43.3191C54.3832 43.4328 54.1404 43.6603 53.9961 43.9425C53.8014 44.275 53.6548 44.8678 53.6986 45.8784C53.8232 45.9725 53.972 46.0381 54.1339 46.0863C54.6239 46.235 55.4661 46.3378 56.4001 46.3247C58.2573 46.3006 60.5476 45.8697 61.7661 45.2988C62.757 44.8438 63.6911 44.2291 64.5114 43.5116C60.4448 44.3428 58.1567 44.1263 56.7414 43.5466C56.4001 43.3978 56.0676 43.2031 55.7701 42.9625ZM32.3464 43.2359H32.2873C32.1298 43.2469 31.9111 43.3059 31.467 43.785C30.452 44.9225 30.0998 45.64 29.2686 46.3028C28.4264 46.9744 27.3436 47.3288 25.167 47.7728C24.4845 47.9106 24.0842 48.0681 23.8217 48.1928C23.9004 48.2628 23.9004 48.2869 24.0251 48.3416C24.3467 48.5253 24.7536 48.6741 25.0861 48.7638C26.0201 48.9913 27.5448 49.2647 29.1526 48.9913C30.7473 48.7178 32.4098 47.9522 33.8361 45.9616C34.0876 45.6203 34.1073 45.1063 33.9039 44.5594C33.7004 44.0256 33.2542 43.5466 32.9479 43.4219C32.7532 43.3278 32.5476 43.2731 32.3442 43.2381L32.3464 43.2359Z" fill="white"/>
</svg>
