<svg width="70" height="70" viewBox="0 0 70 70" fill="none" xmlns="http://www.w3.org/2000/svg">
<path d="M31.3095 48.5865C32.5126 48.6412 33.742 48.6806 34.9867 48.6806C36.2445 48.6806 37.487 48.6543 38.7054 48.5865C37.487 50.1615 36.2839 51.5549 35.0107 52.8828L35.0282 52.8653C33.7617 51.5528 32.5454 50.1571 31.3992 48.7046L31.3095 48.5865ZM18.8451 46.8365C21.2142 47.4381 24.1039 47.9499 27.0526 48.2649L27.3392 48.289C29.1439 50.7674 30.9682 52.9484 32.9261 55.0003L32.902 54.974C30.0342 58.1743 26.1645 60.4231 21.7873 61.2303L21.667 61.2478C21.6582 61.2478 21.6495 61.2478 21.6407 61.2478C21.0982 61.2478 20.5864 61.1143 20.1379 60.8781L20.1554 60.8868C18.3354 59.8478 17.5457 55.8731 18.1604 50.7653C18.307 49.5074 18.5476 48.184 18.8429 46.8343L18.8451 46.8365ZM51.1829 46.8081C51.4411 47.8449 51.6839 49.1662 51.8567 50.5093L51.8764 50.6974C52.5042 55.8031 51.7298 59.7734 49.9251 60.8343C49.5226 61.0574 49.0414 61.1887 48.5295 61.1887C48.4792 61.1887 48.4289 61.1865 48.3786 61.1843H48.3851C43.8942 60.364 40.0267 58.1306 37.1654 54.9696L37.1501 54.9521C39.0729 52.9331 40.8842 50.7565 42.5445 48.4662L42.6714 48.2824C45.9001 47.9456 48.7942 47.4249 51.6139 46.714L51.1829 46.8059V46.8081ZM21.4023 38.6443C21.9492 39.7162 22.5223 40.7837 23.1523 41.8556C23.7808 42.9216 24.4232 43.9629 25.0795 44.9793C23.1807 44.7015 21.3476 44.3515 19.5954 43.9249C20.0876 42.2034 20.7045 40.4206 21.4001 38.6399L21.4023 38.6443ZM48.5886 38.5896C49.3126 40.3856 49.9273 42.1771 50.437 43.914C48.687 44.3428 46.8386 44.7059 44.9267 44.9793C45.5829 43.9534 46.2392 42.8968 46.8539 41.814C47.4686 40.7487 48.0439 39.6593 48.5929 38.5874L48.5886 38.5896ZM16.6664 26.8887C17.6201 30.1218 18.6439 32.8256 19.8361 35.4331L19.672 35.0349C18.6526 37.2334 17.6442 39.9218 16.8173 42.689L16.7036 43.1374C15.1592 42.6628 13.9167 42.1968 12.707 41.674L12.9586 41.7703C8.2248 39.7556 5.1623 37.1065 5.1623 35.0065C5.1623 32.9065 8.2248 30.2443 12.9586 28.2384C14.107 27.7462 15.367 27.3021 16.6664 26.8887ZM53.2829 26.8778C54.6064 27.2868 55.8642 27.744 57.0411 28.2384C61.7748 30.2618 64.8373 32.9065 64.8373 35.0065C64.8242 37.1065 61.7617 39.7621 57.0279 41.7724C55.8795 42.2646 54.6217 42.7065 53.3245 43.1199C52.362 39.8759 51.3382 37.1743 50.1504 34.5624L50.3167 34.9737C51.3317 32.7774 52.3423 30.089 53.167 27.3218L53.2829 26.8712V26.8778ZM44.9092 25.0337C46.8101 25.3159 48.6411 25.6615 50.3932 26.0924C49.9011 27.8206 49.2864 29.5968 48.5886 31.3774C48.0417 30.3121 47.4686 29.2381 46.8386 28.1684C46.2239 27.0965 45.5676 26.0531 44.9114 25.0359L44.9092 25.0337ZM25.0642 25.0337C24.4079 26.064 23.7517 27.1184 23.1392 28.2056C22.5245 29.2709 21.9492 30.3428 21.4023 31.4146C20.6782 29.6209 20.0636 27.8337 19.5539 26.0924C21.3039 25.6834 23.1479 25.3181 25.062 25.0381L25.0642 25.0337ZM34.9998 24.3381C37.0232 24.3381 39.0379 24.4299 41.0198 24.5918C42.1296 26.1829 43.2073 27.8774 44.2529 29.6756C45.2694 31.4256 46.1969 33.1989 47.0354 34.9956C46.1932 36.7871 45.2701 38.5765 44.2661 40.3265C43.227 42.1312 42.1529 43.8484 41.0395 45.4387C39.0489 45.6115 37.032 45.7056 34.9976 45.7056C32.9742 45.7056 30.9595 45.6093 28.9776 45.4518C27.8686 43.8615 26.7857 42.1596 25.7445 40.3681C24.728 38.6181 23.8005 36.8447 22.962 35.0481C23.7911 33.2521 24.7273 31.4584 25.7314 29.7062C26.7704 27.9015 27.8445 26.1909 28.9579 24.6006C30.9486 24.4256 32.9654 24.3337 34.9998 24.3337V24.3381ZM34.9582 17.1609C36.227 18.4734 37.4432 19.8668 38.5873 21.3193L38.6748 21.4353C37.4717 21.3806 36.2423 21.3434 34.9976 21.3434C33.7398 21.3434 32.4973 21.3696 31.2789 21.4353C32.4951 19.8603 33.6982 18.4668 34.9736 17.139L34.9561 17.1565L34.9582 17.1609ZM21.6123 8.82213C26.1032 9.64463 29.9686 11.8781 32.832 15.0368L32.8473 15.0543C30.9245 17.0756 29.1132 19.2521 27.4529 21.5468L27.3261 21.7306C24.0995 22.0653 21.2054 22.5815 18.3879 23.2924L18.8167 23.2006C18.5104 21.8618 18.2829 20.5646 18.1232 19.3199C17.4954 14.2143 18.2698 10.244 20.0745 9.18744C20.5251 8.97525 21.0523 8.844 21.6079 8.8265H21.6145L21.6123 8.82213ZM48.3217 8.76744V8.78494C48.3501 8.78494 48.3829 8.78275 48.4179 8.78275C48.9407 8.78275 49.4329 8.91182 49.8661 9.13932L49.8486 9.13057C51.6686 10.174 52.4582 14.1465 51.8436 19.2565C51.697 20.5143 51.4564 21.8399 51.1611 23.1918C48.7876 22.5837 45.8979 22.0696 42.9492 21.7568L42.6692 21.7328C40.8623 19.2521 39.0379 17.0712 37.0801 15.0171L37.1064 15.0434C39.9742 11.8496 43.8373 9.60088 48.2057 8.78932L48.3282 8.76963L48.3217 8.76744ZM48.3348 5.78807C42.9929 6.59963 38.3686 9.194 34.9911 12.9368L34.9736 12.9565C31.572 9.21588 26.9476 6.639 21.737 5.85807L21.6145 5.84275C21.5861 5.84275 21.5511 5.84275 21.5161 5.84275C20.442 5.84275 19.4336 6.12494 18.5607 6.61932L18.5914 6.604C14.8332 8.77182 13.9911 15.5268 15.9314 24.0034C7.61012 26.5737 2.19824 30.6818 2.19824 35.0109C2.19824 39.3574 7.63855 43.4765 15.9839 46.0271C14.0589 54.5365 14.9186 61.3024 18.6854 63.4681C19.5123 63.9428 20.5054 64.2206 21.562 64.2206C21.6101 64.2206 21.6582 64.2206 21.7042 64.2184H21.6976C27.0395 63.4068 31.6639 60.8103 35.0414 57.0653L35.0589 57.0456C38.4604 60.7884 43.0848 63.3653 48.2954 64.1462L48.4179 64.1615C48.4507 64.1615 48.4923 64.1615 48.5317 64.1615C49.5992 64.1615 50.6032 63.8815 51.4717 63.3937L51.4411 63.409C55.197 61.2434 56.0414 54.4884 54.1011 46.0096C62.3917 43.4612 67.8036 39.3443 67.8036 35.0087C67.8036 30.6621 62.3632 26.5431 54.0179 23.9859C55.9429 15.4853 55.0832 8.71275 51.3164 6.54494C50.4807 6.06588 49.4789 5.78369 48.4114 5.78369C48.3829 5.78369 48.3545 5.78369 48.3261 5.78369H48.3304L48.3348 5.78807ZM41.0964 35.0109C41.0964 38.3862 38.3598 41.1228 34.9845 41.1228C31.6092 41.1228 28.8726 38.3862 28.8726 35.0109C28.8726 31.6356 31.6092 28.899 34.9845 28.899C36.6732 28.899 38.2001 29.5837 39.307 30.6884C40.4139 31.7953 41.0964 33.3221 41.0964 35.0109Z" fill="white"/>
</svg>
