<svg width="70" height="70" viewBox="0 0 70 70" fill="none" xmlns="http://www.w3.org/2000/svg">
<g clip-path="url(#clip0_527_213)">
<path d="M35.0002 5.83325C40.7688 5.83325 46.4079 7.54385 51.2043 10.7487C56.0007 13.9536 59.7391 18.5088 61.9466 23.8383C64.1542 29.1678 64.7318 35.0323 63.6064 40.6901C62.481 46.3478 59.7031 51.5448 55.6241 55.6239C51.5451 59.7029 46.3481 62.4808 40.6903 63.6062C35.0325 64.7316 29.1681 64.154 23.8386 61.9464C18.509 59.7388 13.9538 56.0005 10.749 51.204C7.54409 46.4076 5.8335 40.7685 5.8335 34.9999C5.8335 27.2644 8.9064 19.8458 14.3762 14.376C19.846 8.90616 27.2647 5.83325 35.0002 5.83325ZM29.1668 44.7124C29.6054 46.1378 29.6054 47.6621 29.1668 49.0874C29.1668 49.2332 29.1668 49.3791 28.9918 49.5832C28.8168 49.7874 28.9918 49.7874 28.7877 49.9333C28.45 50.6535 27.9968 51.3136 27.446 51.8874C25.7543 53.7541 23.3335 54.4541 22.371 53.8707C21.4085 53.2874 21.8752 50.6041 23.8002 48.5332C25.3076 47.0462 27.04 45.806 28.9335 44.8583L29.1668 44.7124ZM53.2877 18.4624C51.9752 13.2708 43.371 11.5791 35.2627 14.4666C30.1791 16.13 25.4719 18.7759 21.4085 22.2541C16.946 26.4541 16.2168 30.0999 16.5085 31.6166C17.5002 36.9833 24.9085 40.5124 27.9418 43.1082C27.0668 43.5457 20.5335 46.8416 18.9585 50.2249C18.2925 51.2817 18.072 52.5591 18.3453 53.778C18.6186 54.9968 19.3634 56.0579 20.4168 56.7291C22.2873 57.1803 24.2522 57.0348 26.0358 56.313C27.8195 55.5912 29.3325 54.3292 30.3627 52.7041C31.2145 51.3922 31.7478 49.8993 31.92 48.3446C32.0922 46.7899 31.8985 45.2164 31.3543 43.7499C32.8162 43.4081 34.3273 43.3291 35.8168 43.5166C40.9502 44.1291 41.9418 47.3083 41.6502 48.6499C41.5633 49.1264 41.3751 49.5787 41.0984 49.9762C40.8216 50.3738 40.4627 50.7072 40.046 50.9541C39.696 51.1582 39.5793 51.2457 39.6085 51.4207C39.6377 51.5957 39.8127 51.6541 40.1043 51.5958C40.9 51.3794 41.6085 50.9204 42.1313 50.2827C42.654 49.6449 42.965 48.8601 43.021 48.0374C43.021 44.8874 40.1043 41.3874 34.8252 41.4749C33.2836 41.4389 31.7466 41.6556 30.2752 42.1166L30.0418 41.8541C26.746 38.3541 20.6793 36.0208 20.9418 31.1499C20.9418 29.4291 21.6127 24.9374 32.6085 19.4833C41.5918 14.9916 48.796 16.2166 50.1085 18.9874C51.8877 22.8666 46.2585 30.1291 36.9252 31.1791C35.9032 31.3725 34.8513 31.3395 33.8435 31.0825C32.8356 30.8255 31.8964 30.3507 31.0918 29.6916C30.596 29.1958 30.5377 29.1083 30.3627 29.1958C30.1877 29.2833 30.3627 29.8666 30.3627 30.1583C31.1043 31.4358 32.303 32.3843 33.7168 32.8124C37.3954 33.6063 41.2302 33.229 44.6835 31.7333C50.1668 29.5166 54.6002 23.3333 53.2877 18.3166V18.4624Z" fill="white"/>
</g>
<defs>
<clipPath id="clip0_527_213">
<rect width="70" height="70" fill="white"/>
</clipPath>
</defs>
</svg>
