<svg width="70" height="70" viewBox="0 0 70 70" fill="none" xmlns="http://www.w3.org/2000/svg">
<g clip-path="url(#clip0_621_2865)">
<path d="M63.6431 3.63343C62.6631 5.99155 61.4097 8.21405 59.9069 10.2637C53.3225 3.6903 44.3997 -0.00219727 35.0919 -0.00219727C15.8375 -0.00219727 0 15.8353 0 35.0897C0 44.695 3.94188 53.889 10.9025 60.5084L12.1909 61.6591C18.5259 66.9922 26.5234 69.9081 34.7944 69.9191C53.1038 69.9191 68.4841 55.5865 69.7944 37.3341C70.7525 28.3894 68.1188 17.0887 63.6409 3.64437L63.6431 3.63343ZM15.8813 60.714C15.3234 61.4206 14.4572 61.8187 13.5559 61.8187C11.8934 61.8187 10.5591 60.4734 10.5481 58.8219C10.5481 57.1703 11.9153 55.8141 13.5559 55.8141C16.0738 55.825 17.4759 58.754 15.8813 60.714ZM63.5053 50.2097C54.8472 61.74 36.3431 57.855 24.4956 58.4128C24.4956 58.4128 22.3869 58.5375 20.2694 58.8809C20.2694 58.8809 21.0678 58.5506 22.0916 58.1525C30.4194 55.2584 34.3503 54.7006 39.41 52.1019C48.9344 47.2587 58.3559 36.6647 60.3159 25.6462C56.6825 36.2534 45.6859 45.3556 35.6716 49.0591C28.8137 51.5878 16.4172 54.0487 16.4172 54.0487L15.9163 53.7862C7.47469 49.6847 7.22313 31.4103 22.5575 25.5084C29.2688 22.9337 35.7044 24.3469 42.9516 22.6253C50.6997 20.7791 59.6662 14.9691 63.3106 7.39155C67.3903 19.5147 72.2991 38.4869 63.5053 50.2097Z" fill="white"/>
</g>
<defs>
<clipPath id="clip0_621_2865">
<rect width="70" height="70" fill="white"/>
</clipPath>
</defs>
</svg>
