<svg width="70" height="70" viewBox="0 0 70 70" fill="none" xmlns="http://www.w3.org/2000/svg">
<g clip-path="url(#clip0_527_218)">
<path d="M68.3232 0.546875H22.3159V23.6146H44.9537C45.7602 23.6146 46.4145 24.2689 46.4145 25.0754V47.4007H69.784V2.01031C69.7847 1.62243 69.6311 1.25019 69.3571 0.975666C69.083 0.701142 68.7111 0.546875 68.3232 0.546875Z" fill="white"/>
<path opacity="0.405" d="M22.3134 0.546875V23.6146H0.73044C0.433861 23.6141 0.166933 23.4346 0.0545699 23.1601C-0.0577932 22.8856 0.00663556 22.5705 0.217705 22.3621L22.3134 0.546875ZM47.659 69.24C47.4489 69.4464 47.1355 69.5067 46.8638 69.393C46.5921 69.2793 46.4151 69.0138 46.4146 68.7193V47.4007H69.7841L47.659 69.2373V69.24Z" fill="white"/>
<path opacity="0.405" d="M22.3135 23.6145H45.6856C46.0862 23.6145 46.4147 23.9403 46.4147 24.3435V47.4006H23.7769C22.9702 47.4006 22.3161 46.7466 22.3161 45.9398V23.6145H22.3135Z" fill="white"/>
</g>
<defs>
<clipPath id="clip0_527_218">
<rect width="70" height="70" fill="white"/>
</clipPath>
</defs>
</svg>
