<svg width="70" height="70" viewBox="0 0 70 70" fill="none" xmlns="http://www.w3.org/2000/svg">
<path d="M59.0625 54.6875H10.9375C8.52031 54.6875 6.5625 52.7297 6.5625 50.3125V19.6875C6.5625 17.2703 8.52031 15.3125 10.9375 15.3125H59.0625C61.4797 15.3125 63.4375 17.2703 63.4375 19.6875V50.3125C63.4375 52.7297 61.4797 54.6875 59.0625 54.6875Z" stroke="white" stroke-width="2" stroke-miterlimit="10"/>
<path d="M53.1519 34.3264C53.2503 32.7492 53.6769 32.0098 54.4863 32.0098C55.2825 32.0098 55.6938 32.7623 55.7506 34.3264H53.1519ZM59.0625 35.2626C59.0625 33.5017 58.6797 32.1082 57.925 31.1282C57.1572 30.1329 56.0066 29.6232 54.5431 29.6232C51.5463 29.6232 49.6847 31.8392 49.6847 35.3917C49.6847 37.3801 50.1813 38.872 51.1613 39.8236C52.0428 40.6767 53.3072 41.1011 54.9391 41.1011C56.4441 41.1011 57.8375 40.7467 58.7169 40.1626L58.3341 37.7476C57.4678 38.2157 56.4594 38.4717 55.3219 38.4717C54.6394 38.4717 54.1712 38.3295 53.83 38.032C53.4603 37.7192 53.2481 37.2073 53.1759 36.4832H59.0144C59.0341 36.3148 59.0625 35.5186 59.0625 35.2626ZM44.9706 37.6492C44.6863 38.1895 44.2466 38.4739 43.7347 38.4739C43.3803 38.4739 43.0675 38.4039 42.7831 38.2617V33.0051C43.3803 32.3795 43.9206 32.3095 44.1175 32.3095C45.0122 32.3095 45.4519 33.2764 45.4519 35.1642C45.4541 36.2426 45.2966 37.0804 44.9706 37.6492ZM47.8975 30.8307C47.2719 30.0214 46.4056 29.6232 45.2988 29.6232C44.275 29.6232 43.3803 30.0498 42.5425 30.9445L42.3588 29.8354H39.2612V44.9795L42.7853 44.3976V40.8451C43.3256 41.0157 43.8791 41.1011 44.3756 41.1011C45.2572 41.1011 46.5347 40.8736 47.53 39.7951C48.4816 38.7582 48.965 37.1526 48.965 35.0351C48.9628 33.1604 48.6062 31.7407 47.8975 30.8307ZM34.335 29.8354H37.8722V40.8889H34.335V29.8354ZM36.1112 28.7417C37.135 28.7417 37.9575 27.9039 37.9575 26.8801C37.9575 25.8432 37.1328 25.0186 36.1112 25.0186C35.0744 25.0186 34.2497 25.8432 34.2497 26.8801C34.2497 27.9039 35.0744 28.7417 36.1112 28.7417ZM32.8147 29.6845C31.8194 29.6845 31.0253 30.2073 30.7125 31.1436L30.5003 29.8376H27.4181V40.8911H30.9422V33.7161C31.3819 33.1757 32.0075 32.9811 32.8606 32.9811C33.0444 32.9811 33.2434 32.9811 33.4862 33.0226V29.7698C33.2412 29.7129 33.0291 29.6845 32.8147 29.6845ZM26.0575 32.4495L26.4841 29.8354H24.2331V26.6614L21.2078 27.1601L20.7703 29.8354L19.7094 30.0082L19.3113 32.4495H20.7681V37.577C20.7681 38.9114 21.1094 39.8367 21.805 40.4032C22.3869 40.8714 23.2247 41.0989 24.4038 41.0989C25.3138 41.0989 25.8672 40.9436 26.25 40.8429V38.0736C26.0378 38.1304 25.5544 38.2289 25.2262 38.2289C24.5306 38.2289 24.2309 37.8745 24.2309 37.0629V32.4451H26.0575V32.4495ZM15.9666 33.9982C14.9297 33.6154 14.3609 33.3157 14.3609 32.8476C14.3609 32.4495 14.6869 32.222 15.2709 32.222C16.3362 32.222 17.43 32.6332 18.1825 33.0029L18.6091 30.3757C18.0119 30.0914 16.7912 29.6232 15.1003 29.6232C13.9059 29.6232 12.9128 29.9361 12.2019 30.5179C11.4625 31.1282 11.0797 32.0098 11.0797 33.0751C11.0797 35.0067 12.2587 35.8314 14.1772 36.527C15.4131 36.9667 15.8244 37.2795 15.8244 37.7629C15.8244 38.2311 15.4263 38.5023 14.7022 38.5023C13.8075 38.5023 12.3288 38.0626 11.3641 37.4939L10.9375 40.1495C11.7622 40.6176 13.2956 41.1011 14.8859 41.1011C16.1503 41.1011 17.2025 40.8036 17.9112 40.2348C18.7075 39.6092 19.1187 38.6861 19.1187 37.4939C19.1209 35.5186 17.9134 34.6939 15.9666 33.9982Z" fill="white"/>
</svg>
