<svg width="70" height="70" viewBox="0 0 70 70" fill="none" xmlns="http://www.w3.org/2000/svg">
<g clip-path="url(#clip0_527_265)">
<path d="M47.2908 19.7224L47.0721 20.8628C46.7338 23.0241 46.8562 23.6424 47.7837 24.4445L48.6792 25.1853L47.7517 29.3212C47.1975 31.7887 46.5179 33.8566 46.0863 34.5362C45.7158 35.1224 45.2842 35.9857 45.1908 36.4495C45.0363 37.0037 44.5113 37.5607 43.7092 38.0537C43.0004 38.4562 41.6092 39.5353 40.6233 40.4016C39.8358 41.1103 39.2933 41.5449 38.9988 41.7316L38.0363 42.4928C37.7271 42.9887 37.5521 43.3882 37.485 43.6916C37.4179 44.0037 37.4558 44.2107 37.555 44.3624C37.6513 44.5082 37.8175 44.6103 38.045 44.6745C38.3143 44.7376 38.5915 44.7602 38.8675 44.7416C39.4919 44.6989 40.1098 44.5894 40.7108 44.4149C40.915 44.3595 41.0754 44.307 41.2154 44.2603C41.4312 43.9949 41.93 43.4932 42.8138 42.6212C45.1588 40.3082 46.0542 39.0424 45.1296 39.3837C44.7883 39.5062 44.9429 39.197 45.5292 38.5787C46.7658 37.3741 47.4746 35.5541 48.9563 29.8462C50.1288 25.3399 50.1288 25.2757 50.9921 25.2757C51.3975 25.2757 52.5437 25.3457 52.5437 25.3457V19.7224H49.9129H47.2908ZM58.4879 28.9537C58.3013 28.9537 57.9921 29.2337 57.8083 29.5428C57.47 30.097 57.8696 30.4353 62.9621 33.6145C65.9867 35.5307 68.425 37.1641 68.3637 37.2895C68.3025 37.3799 65.8321 38.987 62.8717 40.8391C57.4992 44.1699 57.47 44.202 57.9629 44.8816C58.5812 45.6837 57.9629 45.9607 64.9367 41.6091L70 38.3687V35.9303L64.3504 32.442C61.2967 30.5287 58.6425 28.9857 58.4879 28.9537ZM11.5733 29.2949C11.4188 29.2949 8.76458 30.8699 5.71083 32.7512L0 36.2395V38.6778L5.67875 42.2274C8.82875 44.1699 11.4829 45.777 11.6054 45.777C11.7279 45.777 11.9758 45.497 12.2238 45.1587C12.5942 44.5724 12.2821 44.3245 7.06708 41.0228C2.1 37.9049 1.575 37.4732 2.07083 37.1349C2.38 36.9191 4.725 35.4666 7.25667 33.8945C13.0288 30.3449 12.7196 30.5899 12.2558 29.8491C12.0721 29.5428 11.76 29.2657 11.5763 29.2949H11.5733ZM36.9017 29.362C36.05 29.3562 34.2183 30.6541 28.735 35.1312C28.4988 35.6941 28.4783 36.082 28.5862 36.3328C28.6562 36.5049 28.7846 36.6245 28.9625 36.712C29.1375 36.7995 29.365 36.852 29.6158 36.8724C30.1146 36.9162 30.7037 36.8374 31.1792 36.7441L31.5 36.6712C31.6098 36.5239 31.754 36.4057 31.92 36.327C32.2583 36.1403 33.6788 34.8453 35.0992 33.457C37.5988 30.9253 38.185 29.782 37.1671 29.4116C37.0836 29.3784 36.9915 29.3615 36.9017 29.362ZM43.3067 31.1207C42.5571 31.1412 41.2067 32.0103 38.8938 33.8566C37.7329 34.7987 36.9979 35.3062 36.6042 35.4112L35.0758 36.6187C34.5013 37.6687 34.4167 38.3191 34.5683 38.6778C34.6063 38.7663 34.6614 38.8464 34.7305 38.9135C34.7996 38.9806 34.8813 39.0333 34.9708 39.0687C35.1937 39.1567 35.4313 39.2012 35.6708 39.1999C36.2433 39.1938 36.8123 39.1104 37.3625 38.952C37.6492 38.8751 37.9324 38.7855 38.2113 38.6837L38.2958 38.6487L38.4504 38.567C38.7421 38.1907 39.4129 37.482 40.2529 36.6653C42.9071 34.1045 44.2633 32.2845 43.9863 31.6049C43.8608 31.2753 43.645 31.1091 43.3067 31.1207ZM36.2367 34.2707C36.0208 34.2941 35.5367 34.6674 34.6646 35.4316C33.4046 36.5457 32.0308 37.1874 31.5554 36.9016C31.4449 36.9265 31.3341 36.9499 31.2229 36.9716C30.7388 37.0678 30.135 37.1466 29.5954 37.1028C29.3412 37.0874 29.092 37.0251 28.8604 36.9191C28.642 36.8192 28.4677 36.6428 28.3704 36.4232C28.2625 36.1607 28.2625 35.8341 28.385 35.417L26.4892 36.9745L22.1988 40.5241V46.2787L36.2571 35.2041C36.2544 35.0828 36.2701 34.9619 36.3037 34.8453C36.4117 34.4545 36.4058 34.2562 36.2367 34.2737V34.2707ZM42.2858 36.1345C42.0729 36.1345 41.7171 36.4349 41.1483 37.0387C40.3754 37.8641 39.1592 38.6632 38.5146 38.8266L38.4154 38.8791C38.3096 38.9228 38.2026 38.9636 38.0946 39.0016C37.9196 39.0599 37.6921 39.1299 37.4296 39.1999C36.9046 39.3428 36.2513 39.4741 35.6679 39.4595C35.3929 39.4591 35.1206 39.4057 34.8658 39.302C34.6257 39.203 34.4334 39.0149 34.3292 38.777C34.16 38.3716 34.2271 37.8028 34.5975 36.9949L22.1958 46.7628V50.2774H27.6442L39.2 41.2007C39.5004 40.8682 39.9525 40.4132 40.5621 39.8445C42.1954 38.3307 42.5658 37.8087 42.5658 37.0357C42.5658 36.4349 42.4988 36.1316 42.2858 36.1316V36.1345ZM45.0363 41.822L44.0475 42.8078C43.4933 43.3328 42.5046 43.9803 41.8279 44.2574L41.6938 44.3157L41.685 44.3303L41.6558 44.3595C41.6296 44.3799 41.6179 44.3828 41.5975 44.3916C41.3274 44.4938 41.053 44.5843 40.775 44.6628C40.157 44.8427 39.5214 44.9552 38.8792 44.9982C38.5755 45.0177 38.2707 44.9912 37.975 44.9195C37.7184 44.863 37.4918 44.7134 37.3392 44.4995C37.1992 44.2837 37.1583 43.9949 37.2371 43.6391C37.2997 43.3857 37.3928 43.1409 37.5142 42.9099L28.1896 50.2774H40.5913L42.0729 48.5799C44.1088 46.2057 45.0363 44.5082 45.0363 43.0557V41.822Z" fill="white"/>
</g>
<defs>
<clipPath id="clip0_527_265">
<rect width="70" height="70" fill="white"/>
</clipPath>
</defs>
</svg>
