<svg width="70" height="70" viewBox="0 0 70 70" fill="none" xmlns="http://www.w3.org/2000/svg">
<path d="M19.6875 29.9687C21.7292 21.8021 26.8333 17.7188 35 17.7188C47.25 17.7188 48.7813 26.9062 54.9063 28.4375C58.9896 29.4583 62.5625 27.9271 65.625 23.8437C63.5833 32.0104 58.4792 36.0937 50.3125 36.0937C38.0625 36.0937 36.5312 26.9062 30.4062 25.375C26.3229 24.3542 22.75 25.8854 19.6875 29.9687ZM4.375 48.3437C6.41667 40.1771 11.5208 36.0937 19.6875 36.0937C31.9375 36.0937 33.4688 45.2812 39.5938 46.8125C43.6771 47.8333 47.25 46.3021 50.3125 42.2187C48.2708 50.3854 43.1667 54.4687 35 54.4687C22.75 54.4687 21.2188 45.2812 15.0938 43.75C11.0104 42.7292 7.4375 44.2604 4.375 48.3437Z" fill="white"/>
</svg>
