<svg width="70" height="70" viewBox="0 0 70 70" fill="none" xmlns="http://www.w3.org/2000/svg">
<g clip-path="url(#clip0_527_208)">
<path d="M0 35V0H70V70H0" fill="white"/>
<path d="M15.3477 35.1226V37.9751H24.4477V63.8751H30.9052V37.9751H40.0052V35.1751C40.0052 33.6001 40.0052 32.3226 39.9352 32.2876C39.9352 32.2351 34.3877 32.2176 27.6502 32.2176L15.4002 32.2701V35.1401L15.3477 35.1226ZM56.2452 32.2001C58.0302 32.6201 59.3952 33.4251 60.6202 34.7026C61.2677 35.4026 62.2302 36.6276 62.3002 36.9426C62.3002 37.0476 59.2727 39.0951 57.4352 40.2326C57.3652 40.2851 57.0852 39.9876 56.8052 39.5326C55.8952 38.2376 54.9677 37.6776 53.5152 37.5726C51.4152 37.4326 50.0152 38.5351 50.0152 40.3726C50.0152 40.9326 50.1202 41.2476 50.3302 41.7026C50.8027 42.6651 51.6777 43.2426 54.3902 44.4326C59.3952 46.5851 61.5652 48.0026 62.8777 50.0326C64.3652 52.3076 64.6977 55.8776 63.7002 58.5551C62.5802 61.4776 59.8502 63.4551 55.9477 64.1026C54.7227 64.3126 51.9227 64.2776 50.6102 64.0501C47.8102 63.5251 45.1327 62.1251 43.4877 60.3226C42.8402 59.6226 41.5977 57.7501 41.6677 57.6276L42.3327 57.2076L44.9577 55.6851L46.9352 54.5301L47.3902 55.1426C47.9677 56.0526 49.2627 57.2776 50.0152 57.6976C52.2902 58.8701 55.3352 58.7126 56.8402 57.3476C57.4877 56.7526 57.7677 56.1226 57.7677 55.2476C57.7677 54.4426 57.6452 54.0751 57.2427 53.4626C56.6827 52.6926 55.5627 52.0626 52.4127 50.6626C48.7902 49.1226 47.2502 48.1426 45.8152 46.6376C44.9927 45.7276 44.2402 44.3101 43.8902 43.1376C43.6277 42.1226 43.5402 39.6376 43.7852 38.6401C44.5377 35.1401 47.1802 32.6901 50.9602 31.9901C52.1852 31.7451 55.0727 31.8501 56.2802 32.1651L56.2452 32.2001Z" fill="black"/>
</g>
<defs>
<clipPath id="clip0_527_208">
<rect width="70" height="70" fill="white"/>
</clipPath>
</defs>
</svg>
