<svg width="70" height="70" viewBox="0 0 70 70" fill="none" xmlns="http://www.w3.org/2000/svg">
<g clip-path="url(#clip0_527_318)">
<path d="M35 0C15.668 0 0 15.668 0 35C0 54.332 15.668 70 35 70C54.332 70 70 54.332 70 35C70 15.668 54.332 0 35 0ZM52.4727 27.6855C52.3223 31.0898 49.9434 35.7383 45.3359 41.6445C40.5781 47.8242 36.5449 50.9004 33.25 50.9004C31.2129 50.9004 29.4902 49.0273 28.082 45.2539C27.1387 41.7949 26.1953 38.3496 25.252 34.9043C24.1992 31.1309 23.0781 29.2578 21.875 29.2578C21.6152 29.2578 20.6992 29.8047 19.127 30.9121L17.4863 28.793C19.209 27.2754 20.9043 25.7578 22.5859 24.2539C24.8828 22.2578 26.6055 21.2187 27.7676 21.1094C30.4883 20.8496 32.1563 22.709 32.7852 26.6738C33.4551 30.9668 33.9336 33.6328 34.1934 34.6719C34.9727 38.2266 35.834 40.0039 36.7773 40.0039C37.502 40.0039 38.6094 38.8555 40.0723 36.5586C41.5352 34.2617 42.3145 32.5117 42.4238 31.2949C42.6289 29.3125 41.8496 28.3145 40.0723 28.3145C39.2383 28.3145 38.377 28.4922 37.4883 28.8613C39.2109 23.2695 42.5059 20.5488 47.373 20.6992C50.9961 20.8223 52.6914 23.1465 52.4727 27.6855Z" fill="white"/>
</g>
<defs>
<clipPath id="clip0_527_318">
<rect width="70" height="70" fill="white"/>
</clipPath>
</defs>
</svg>
